<svg width="157" height="64" viewBox="0 0 157 64" fill="none" xmlns="http://www.w3.org/2000/svg">
<path d="M144 9H13C9.68629 9 7 11.6863 7 15V45C7 48.3137 9.68629 51 13 51H144C147.314 51 150 48.3137 150 45V15C150 11.6863 147.314 9 144 9Z" fill="#096F6D"/>
<path d="M58.7001 20.136C58.7001 20.5653 58.6321 20.956 58.4961 21.308C58.3601 21.66 58.1681 21.9613 57.9201 22.212C57.6721 22.4627 57.3734 22.6573 57.0241 22.796C56.6774 22.932 56.2934 23 55.8721 23H53.7321V17.268H55.8721C56.2934 17.268 56.6774 17.3373 57.0241 17.476C57.3734 17.612 57.6721 17.8067 57.9201 18.06C58.1681 18.3107 58.3601 18.612 58.4961 18.964C58.6321 19.316 58.7001 19.7067 58.7001 20.136ZM57.9041 20.136C57.9041 19.784 57.8561 19.4693 57.7601 19.192C57.6641 18.9147 57.5281 18.68 57.3521 18.488C57.1761 18.296 56.9628 18.1493 56.7121 18.048C56.4614 17.9467 56.1814 17.896 55.8721 17.896H54.5081V22.372H55.8721C56.1814 22.372 56.4614 22.3213 56.7121 22.22C56.9628 22.1187 57.1761 21.9733 57.3521 21.784C57.5281 21.592 57.6641 21.3573 57.7601 21.08C57.8561 20.8027 57.9041 20.488 57.9041 20.136ZM59.9906 18.948V23H59.2786V18.948H59.9906ZM60.1426 17.676C60.1426 17.7453 60.1279 17.8107 60.0986 17.872C60.0719 17.9307 60.0346 17.984 59.9866 18.032C59.9412 18.0773 59.8866 18.1133 59.8226 18.14C59.7612 18.1667 59.6959 18.18 59.6266 18.18C59.5572 18.18 59.4919 18.1667 59.4306 18.14C59.3719 18.1133 59.3199 18.0773 59.2746 18.032C59.2292 17.984 59.1932 17.9307 59.1666 17.872C59.1399 17.8107 59.1266 17.7453 59.1266 17.676C59.1266 17.6067 59.1399 17.5413 59.1666 17.48C59.1932 17.416 59.2292 17.3613 59.2746 17.316C59.3199 17.268 59.3719 17.2307 59.4306 17.204C59.4919 17.1773 59.5572 17.164 59.6266 17.164C59.6959 17.164 59.7612 17.1773 59.8226 17.204C59.8866 17.2307 59.9412 17.268 59.9866 17.316C60.0346 17.3613 60.0719 17.416 60.0986 17.48C60.1279 17.5413 60.1426 17.6067 60.1426 17.676ZM63.1871 19.616C63.1551 19.6747 63.1058 19.704 63.0391 19.704C62.9991 19.704 62.9538 19.6893 62.9031 19.66C62.8525 19.6307 62.7898 19.5987 62.7151 19.564C62.6431 19.5267 62.5565 19.4933 62.4551 19.464C62.3538 19.432 62.2338 19.416 62.0951 19.416C61.9751 19.416 61.8671 19.432 61.7711 19.464C61.6751 19.4933 61.5925 19.5347 61.5231 19.588C61.4565 19.6413 61.4045 19.704 61.3671 19.776C61.3325 19.8453 61.3151 19.9213 61.3151 20.004C61.3151 20.108 61.3445 20.1947 61.4031 20.264C61.4645 20.3333 61.5445 20.3933 61.6431 20.444C61.7418 20.4947 61.8538 20.54 61.9791 20.58C62.1045 20.6173 62.2325 20.6587 62.3631 20.704C62.4965 20.7467 62.6258 20.7947 62.7511 20.848C62.8765 20.9013 62.9885 20.968 63.0871 21.048C63.1858 21.128 63.2645 21.2267 63.3231 21.344C63.3845 21.4587 63.4151 21.5973 63.4151 21.76C63.4151 21.9467 63.3818 22.12 63.3151 22.28C63.2485 22.4373 63.1498 22.5747 63.0191 22.692C62.8885 22.8067 62.7285 22.8973 62.5391 22.964C62.3498 23.0307 62.1311 23.064 61.8831 23.064C61.6005 23.064 61.3445 23.0187 61.1151 22.928C60.8858 22.8347 60.6911 22.716 60.5311 22.572L60.6991 22.3C60.7205 22.2653 60.7458 22.2387 60.7751 22.22C60.8045 22.2013 60.8418 22.192 60.8871 22.192C60.9351 22.192 60.9858 22.2107 61.0391 22.248C61.0925 22.2853 61.1565 22.3267 61.2311 22.372C61.3085 22.4173 61.4018 22.4587 61.5111 22.496C61.6205 22.5333 61.7565 22.552 61.9191 22.552C62.0578 22.552 62.1791 22.5347 62.2831 22.5C62.3871 22.4627 62.4738 22.4133 62.5431 22.352C62.6125 22.2907 62.6631 22.22 62.6951 22.14C62.7298 22.06 62.7471 21.9747 62.7471 21.884C62.7471 21.772 62.7165 21.68 62.6551 21.608C62.5965 21.5333 62.5178 21.4707 62.4191 21.42C62.3205 21.3667 62.2071 21.3213 62.0791 21.284C61.9538 21.244 61.8245 21.2027 61.6911 21.16C61.5605 21.1173 61.4311 21.0693 61.3031 21.016C61.1778 20.96 61.0658 20.8907 60.9671 20.808C60.8685 20.7253 60.7885 20.624 60.7271 20.504C60.6685 20.3813 60.6391 20.2333 60.6391 20.06C60.6391 19.9053 60.6711 19.7573 60.7351 19.616C60.7991 19.472 60.8925 19.3467 61.0151 19.24C61.1378 19.1307 61.2885 19.044 61.4671 18.98C61.6458 18.916 61.8498 18.884 62.0791 18.884C62.3458 18.884 62.5845 18.9267 62.7951 19.012C63.0085 19.0947 63.1925 19.2093 63.3471 19.356L63.1871 19.616ZM64.6707 22.024C64.8014 22.2 64.9441 22.324 65.0987 22.396C65.2534 22.468 65.4267 22.504 65.6187 22.504C65.9974 22.504 66.2881 22.3693 66.4907 22.1C66.6934 21.8307 66.7947 21.4467 66.7947 20.948C66.7947 20.684 66.7707 20.4573 66.7227 20.268C66.6774 20.0787 66.6107 19.924 66.5227 19.804C66.4347 19.6813 66.3267 19.592 66.1987 19.536C66.0707 19.48 65.9254 19.452 65.7627 19.452C65.5307 19.452 65.3267 19.5053 65.1507 19.612C64.9774 19.7187 64.8174 19.8693 64.6707 20.064V22.024ZM64.6347 19.576C64.8054 19.3653 65.0027 19.196 65.2267 19.068C65.4507 18.94 65.7067 18.876 65.9947 18.876C66.2294 18.876 66.4414 18.9213 66.6307 19.012C66.8201 19.1 66.9814 19.232 67.1147 19.408C67.2481 19.5813 67.3507 19.7973 67.4227 20.056C67.4947 20.3147 67.5307 20.612 67.5307 20.948C67.5307 21.2467 67.4907 21.5253 67.4107 21.784C67.3307 22.04 67.2147 22.2627 67.0627 22.452C66.9134 22.6387 66.7294 22.7867 66.5107 22.896C66.2947 23.0027 66.0507 23.056 65.7787 23.056C65.5307 23.056 65.3174 23.0147 65.1387 22.932C64.9627 22.8467 64.8067 22.7293 64.6707 22.58V24.372H63.9547V18.948H64.3827C64.4841 18.948 64.5467 18.9973 64.5707 19.096L64.6347 19.576ZM69.8138 18.884C70.1098 18.884 70.3764 18.9333 70.6138 19.032C70.8511 19.1307 71.0538 19.2707 71.2218 19.452C71.3898 19.6333 71.5178 19.8533 71.6058 20.112C71.6964 20.368 71.7418 20.6547 71.7418 20.972C71.7418 21.292 71.6964 21.58 71.6058 21.836C71.5178 22.092 71.3898 22.3107 71.2218 22.492C71.0538 22.6733 70.8511 22.8133 70.6138 22.912C70.3764 23.008 70.1098 23.056 69.8138 23.056C69.5151 23.056 69.2458 23.008 69.0058 22.912C68.7684 22.8133 68.5658 22.6733 68.3978 22.492C68.2298 22.3107 68.1004 22.092 68.0098 21.836C67.9218 21.58 67.8778 21.292 67.8778 20.972C67.8778 20.6547 67.9218 20.368 68.0098 20.112C68.1004 19.8533 68.2298 19.6333 68.3978 19.452C68.5658 19.2707 68.7684 19.1307 69.0058 19.032C69.2458 18.9333 69.5151 18.884 69.8138 18.884ZM69.8138 22.5C70.2138 22.5 70.5124 22.3667 70.7098 22.1C70.9071 21.8307 71.0058 21.456 71.0058 20.976C71.0058 20.4933 70.9071 20.1173 70.7098 19.848C70.5124 19.5787 70.2138 19.444 69.8138 19.444C69.6111 19.444 69.4338 19.4787 69.2818 19.548C69.1324 19.6173 69.0071 19.7173 68.9058 19.848C68.8071 19.9787 68.7324 20.14 68.6818 20.332C68.6338 20.5213 68.6098 20.736 68.6098 20.976C68.6098 21.456 68.7084 21.8307 68.9058 22.1C69.1058 22.3667 69.4084 22.5 69.8138 22.5ZM72.9835 19.536C73.0715 19.4373 73.1648 19.348 73.2635 19.268C73.3622 19.188 73.4662 19.12 73.5755 19.064C73.6875 19.0053 73.8048 18.9613 73.9275 18.932C74.0528 18.9 74.1875 18.884 74.3315 18.884C74.5528 18.884 74.7475 18.9213 74.9155 18.996C75.0862 19.068 75.2275 19.172 75.3395 19.308C75.4542 19.4413 75.5408 19.6027 75.5995 19.792C75.6582 19.9813 75.6875 20.1907 75.6875 20.42V23H74.9715V20.42C74.9715 20.1133 74.9008 19.876 74.7595 19.708C74.6208 19.5373 74.4088 19.452 74.1235 19.452C73.9128 19.452 73.7155 19.5027 73.5315 19.604C73.3502 19.7053 73.1822 19.8427 73.0275 20.016V23H72.3115V18.948H72.7395C72.8408 18.948 72.9035 18.9973 72.9275 19.096L72.9835 19.536ZM77.1911 18.948V23H76.4791V18.948H77.1911ZM77.3431 17.676C77.3431 17.7453 77.3284 17.8107 77.2991 17.872C77.2724 17.9307 77.2351 17.984 77.1871 18.032C77.1418 18.0773 77.0871 18.1133 77.0231 18.14C76.9618 18.1667 76.8964 18.18 76.8271 18.18C76.7578 18.18 76.6924 18.1667 76.6311 18.14C76.5724 18.1133 76.5204 18.0773 76.4751 18.032C76.4298 17.984 76.3938 17.9307 76.3671 17.872C76.3404 17.8107 76.3271 17.7453 76.3271 17.676C76.3271 17.6067 76.3404 17.5413 76.3671 17.48C76.3938 17.416 76.4298 17.3613 76.4751 17.316C76.5204 17.268 76.5724 17.2307 76.6311 17.204C76.6924 17.1773 76.7578 17.164 76.8271 17.164C76.8964 17.164 76.9618 17.1773 77.0231 17.204C77.0871 17.2307 77.1418 17.268 77.1871 17.316C77.2351 17.3613 77.2724 17.416 77.2991 17.48C77.3284 17.5413 77.3431 17.6067 77.3431 17.676ZM78.7436 22.024C78.8743 22.2 79.017 22.324 79.1716 22.396C79.329 22.468 79.501 22.504 79.6876 22.504C80.069 22.504 80.361 22.3693 80.5636 22.1C80.7663 21.8307 80.8676 21.4293 80.8676 20.896C80.8676 20.4 80.777 20.036 80.5956 19.804C80.417 19.5693 80.161 19.452 79.8276 19.452C79.5956 19.452 79.393 19.5053 79.2196 19.612C79.049 19.7187 78.8903 19.8693 78.7436 20.064V22.024ZM78.7436 19.532C78.9143 19.3347 79.1063 19.1773 79.3196 19.06C79.5356 18.9427 79.7836 18.884 80.0636 18.884C80.301 18.884 80.5143 18.9293 80.7036 19.02C80.8956 19.1107 81.0583 19.2427 81.1916 19.416C81.325 19.5867 81.4263 19.7947 81.4956 20.04C81.5676 20.2853 81.6036 20.5613 81.6036 20.868C81.6036 21.196 81.5636 21.4947 81.4836 21.764C81.4036 22.0333 81.2876 22.264 81.1356 22.456C80.9863 22.6453 80.8036 22.7933 80.5876 22.9C80.3716 23.004 80.129 23.056 79.8596 23.056C79.593 23.056 79.3676 23.0067 79.1836 22.908C79.0023 22.8067 78.8436 22.664 78.7076 22.48L78.6716 22.848C78.6503 22.9493 78.589 23 78.4876 23H78.0276V17.108H78.7436V19.532ZM82.9069 17.108V23H82.1949V17.108H82.9069ZM86.4402 20.532C86.4402 20.3667 86.4162 20.216 86.3682 20.08C86.3228 19.9413 86.2548 19.8227 86.1642 19.724C86.0762 19.6227 85.9682 19.5453 85.8402 19.492C85.7122 19.436 85.5668 19.408 85.4042 19.408C85.0628 19.408 84.7922 19.508 84.5922 19.708C84.3948 19.9053 84.2722 20.18 84.2242 20.532H86.4402ZM87.0162 22.432C86.9282 22.5387 86.8228 22.632 86.7002 22.712C86.5775 22.7893 86.4455 22.8533 86.3042 22.904C86.1655 22.9547 86.0215 22.992 85.8722 23.016C85.7228 23.0427 85.5748 23.056 85.4282 23.056C85.1482 23.056 84.8895 23.0093 84.6522 22.916C84.4175 22.82 84.2135 22.6813 84.0402 22.5C83.8695 22.316 83.7362 22.0893 83.6402 21.82C83.5442 21.5507 83.4962 21.2413 83.4962 20.892C83.4962 20.6093 83.5388 20.3453 83.6242 20.1C83.7122 19.8547 83.8375 19.6427 84.0002 19.464C84.1628 19.2827 84.3615 19.1413 84.5962 19.04C84.8308 18.936 85.0948 18.884 85.3882 18.884C85.6308 18.884 85.8548 18.9253 86.0602 19.008C86.2682 19.088 86.4468 19.2053 86.5962 19.36C86.7482 19.512 86.8668 19.7013 86.9522 19.928C87.0375 20.152 87.0802 20.408 87.0802 20.696C87.0802 20.808 87.0682 20.8827 87.0442 20.92C87.0202 20.9573 86.9748 20.976 86.9082 20.976H84.2002C84.2082 21.232 84.2428 21.4547 84.3042 21.644C84.3682 21.8333 84.4562 21.992 84.5682 22.12C84.6802 22.2453 84.8135 22.34 84.9682 22.404C85.1228 22.4653 85.2962 22.496 85.4882 22.496C85.6668 22.496 85.8202 22.476 85.9482 22.436C86.0788 22.3933 86.1908 22.348 86.2842 22.3C86.3775 22.252 86.4548 22.208 86.5162 22.168C86.5802 22.1253 86.6348 22.104 86.6802 22.104C86.7388 22.104 86.7842 22.1267 86.8162 22.172L87.0162 22.432ZM92.0469 20.532C92.0469 20.3667 92.0229 20.216 91.9749 20.08C91.9296 19.9413 91.8616 19.8227 91.7709 19.724C91.6829 19.6227 91.5749 19.5453 91.4469 19.492C91.3189 19.436 91.1736 19.408 91.0109 19.408C90.6696 19.408 90.3989 19.508 90.1989 19.708C90.0016 19.9053 89.8789 20.18 89.8309 20.532H92.0469ZM92.6229 22.432C92.5349 22.5387 92.4296 22.632 92.3069 22.712C92.1843 22.7893 92.0523 22.8533 91.9109 22.904C91.7723 22.9547 91.6283 22.992 91.4789 23.016C91.3296 23.0427 91.1816 23.056 91.0349 23.056C90.7549 23.056 90.4963 23.0093 90.2589 22.916C90.0243 22.82 89.8203 22.6813 89.6469 22.5C89.4763 22.316 89.3429 22.0893 89.2469 21.82C89.1509 21.5507 89.1029 21.2413 89.1029 20.892C89.1029 20.6093 89.1456 20.3453 89.2309 20.1C89.3189 19.8547 89.4443 19.6427 89.6069 19.464C89.7696 19.2827 89.9683 19.1413 90.2029 19.04C90.4376 18.936 90.7016 18.884 90.9949 18.884C91.2376 18.884 91.4616 18.9253 91.6669 19.008C91.8749 19.088 92.0536 19.2053 92.2029 19.36C92.3549 19.512 92.4736 19.7013 92.5589 19.928C92.6443 20.152 92.6869 20.408 92.6869 20.696C92.6869 20.808 92.6749 20.8827 92.6509 20.92C92.6269 20.9573 92.5816 20.976 92.5149 20.976H89.8069C89.8149 21.232 89.8496 21.4547 89.9109 21.644C89.9749 21.8333 90.0629 21.992 90.1749 22.12C90.2869 22.2453 90.4203 22.34 90.5749 22.404C90.7296 22.4653 90.9029 22.496 91.0949 22.496C91.2736 22.496 91.4269 22.476 91.5549 22.436C91.6856 22.3933 91.7976 22.348 91.8909 22.3C91.9843 22.252 92.0616 22.208 92.1229 22.168C92.1869 22.1253 92.2416 22.104 92.2869 22.104C92.3456 22.104 92.3909 22.1267 92.4229 22.172L92.6229 22.432ZM93.9002 19.536C93.9882 19.4373 94.0815 19.348 94.1802 19.268C94.2788 19.188 94.3828 19.12 94.4922 19.064C94.6042 19.0053 94.7215 18.9613 94.8442 18.932C94.9695 18.9 95.1042 18.884 95.2482 18.884C95.4695 18.884 95.6642 18.9213 95.8322 18.996C96.0028 19.068 96.1442 19.172 96.2562 19.308C96.3708 19.4413 96.4575 19.6027 96.5162 19.792C96.5748 19.9813 96.6042 20.1907 96.6042 20.42V23H95.8882V20.42C95.8882 20.1133 95.8175 19.876 95.6762 19.708C95.5375 19.5373 95.3255 19.452 95.0402 19.452C94.8295 19.452 94.6322 19.5027 94.4482 19.604C94.2668 19.7053 94.0988 19.8427 93.9442 20.016V23H93.2282V18.948H93.6562C93.7575 18.948 93.8202 18.9973 93.8442 19.096L93.9002 19.536Z" fill="white"/>
<path d="M35.3563 30.7406C35.3438 28.6094 36.3093 27.0031 38.2593 25.8188C37.1686 24.2563 35.5187 23.3969 33.3438 23.2313C31.2843 23.0688 29.0312 24.4313 28.2062 24.4313C27.3344 24.4313 25.3406 23.2875 23.7719 23.2875C20.5344 23.3375 17.0938 25.8688 17.0938 31.0188C17.0938 32.5406 17.3719 34.1125 17.9281 35.7313C18.6719 37.8625 21.353 43.0844 24.15 43C25.6125 42.9656 26.6468 41.9625 28.5499 41.9625C30.3968 41.9625 31.3531 43 32.9844 43C35.8062 42.9594 38.2313 38.2125 38.9375 36.075C35.1531 34.2906 35.3563 30.85 35.3563 30.7406ZM32.0718 21.2094C33.6561 19.3281 33.5124 17.6156 33.4655 17C32.0655 17.0813 30.4469 17.9531 29.525 19.025C28.5094 20.175 27.9125 21.5969 28.0406 23.2C29.5531 23.3156 30.9343 22.5375 32.0718 21.2094Z" fill="white"/>
<path d="M60.4 34.632L58.992 30.784C58.9227 30.6133 58.8507 30.4107 58.776 30.176C58.7013 29.9413 58.6267 29.688 58.552 29.416C58.4827 29.688 58.4107 29.944 58.336 30.184C58.2613 30.4187 58.1893 30.624 58.12 30.8L56.72 34.632H60.4ZM64.2 39H62.536C62.3493 39 62.1973 38.9547 62.08 38.864C61.9627 38.768 61.8747 38.6507 61.816 38.512L60.952 36.152H56.16L55.296 38.512C55.2533 38.6347 55.1707 38.7467 55.048 38.848C54.9253 38.9493 54.7733 39 54.592 39H52.912L57.464 27.432H59.656L64.2 39ZM66.7124 36.872C66.9364 37.144 67.1791 37.336 67.4404 37.448C67.7071 37.56 67.9951 37.616 68.3044 37.616C68.6031 37.616 68.8724 37.56 69.1124 37.448C69.3524 37.336 69.5551 37.1653 69.7204 36.936C69.8911 36.7067 70.0218 36.4187 70.1124 36.072C70.2031 35.72 70.2484 35.3067 70.2484 34.832C70.2484 34.352 70.2084 33.9467 70.1284 33.616C70.0538 33.28 69.9444 33.008 69.8004 32.8C69.6564 32.592 69.4804 32.44 69.2724 32.344C69.0698 32.248 68.8378 32.2 68.5764 32.2C68.1658 32.2 67.8164 32.288 67.5284 32.464C67.2404 32.6347 66.9684 32.8773 66.7124 33.192V36.872ZM66.6084 31.912C66.9444 31.5333 67.3258 31.2267 67.7524 30.992C68.1791 30.7573 68.6804 30.64 69.2564 30.64C69.7044 30.64 70.1124 30.7333 70.4804 30.92C70.8538 31.1067 71.1738 31.3787 71.4404 31.736C71.7124 32.088 71.9204 32.5253 72.0644 33.048C72.2138 33.5653 72.2884 34.16 72.2884 34.832C72.2884 35.4453 72.2058 36.0133 72.0404 36.536C71.8751 37.0587 71.6378 37.512 71.3284 37.896C71.0244 38.28 70.6538 38.5813 70.2164 38.8C69.7844 39.0133 69.2991 39.12 68.7604 39.12C68.3018 39.12 67.9098 39.0507 67.5844 38.912C67.2591 38.768 66.9684 38.5707 66.7124 38.32V41.68H64.7364V30.792H65.9444C66.2004 30.792 66.3684 30.912 66.4484 31.152L66.6084 31.912ZM75.4728 36.872C75.6968 37.144 75.9395 37.336 76.2008 37.448C76.4675 37.56 76.7555 37.616 77.0648 37.616C77.3635 37.616 77.6328 37.56 77.8728 37.448C78.1128 37.336 78.3155 37.1653 78.4808 36.936C78.6515 36.7067 78.7822 36.4187 78.8728 36.072C78.9635 35.72 79.0088 35.3067 79.0088 34.832C79.0088 34.352 78.9688 33.9467 78.8888 33.616C78.8142 33.28 78.7048 33.008 78.5608 32.8C78.4168 32.592 78.2408 32.44 78.0328 32.344C77.8302 32.248 77.5982 32.2 77.3368 32.2C76.9262 32.2 76.5768 32.288 76.2888 32.464C76.0008 32.6347 75.7288 32.8773 75.4728 33.192V36.872ZM75.3688 31.912C75.7048 31.5333 76.0862 31.2267 76.5128 30.992C76.9395 30.7573 77.4408 30.64 78.0168 30.64C78.4648 30.64 78.8728 30.7333 79.2408 30.92C79.6142 31.1067 79.9342 31.3787 80.2008 31.736C80.4728 32.088 80.6808 32.5253 80.8248 33.048C80.9742 33.5653 81.0488 34.16 81.0488 34.832C81.0488 35.4453 80.9662 36.0133 80.8008 36.536C80.6355 37.0587 80.3982 37.512 80.0888 37.896C79.7848 38.28 79.4142 38.5813 78.9768 38.8C78.5448 39.0133 78.0595 39.12 77.5208 39.12C77.0622 39.12 76.6702 39.0507 76.3448 38.912C76.0195 38.768 75.7288 38.5707 75.4728 38.32V41.68H73.4968V30.792H74.7048C74.9608 30.792 75.1288 30.912 75.2088 31.152L75.3688 31.912ZM92.2865 29.536C92.2225 29.648 92.1532 29.7307 92.0785 29.784C92.0092 29.832 91.9212 29.856 91.8145 29.856C91.7025 29.856 91.5799 29.816 91.4465 29.736C91.3185 29.6507 91.1639 29.5573 90.9825 29.456C90.8012 29.3547 90.5879 29.264 90.3425 29.184C90.1025 29.0987 89.8172 29.056 89.4865 29.056C89.1879 29.056 88.9265 29.0933 88.7025 29.168C88.4785 29.2373 88.2892 29.336 88.1345 29.464C87.9852 29.592 87.8732 29.7467 87.7985 29.928C87.7239 30.104 87.6865 30.2987 87.6865 30.512C87.6865 30.784 87.7612 31.0107 87.9105 31.192C88.0652 31.3733 88.2679 31.528 88.5185 31.656C88.7692 31.784 89.0545 31.8987 89.3745 32C89.6945 32.1013 90.0225 32.2107 90.3585 32.328C90.6945 32.44 91.0225 32.5733 91.3425 32.728C91.6625 32.8773 91.9479 33.0693 92.1985 33.304C92.4492 33.5333 92.6492 33.816 92.7985 34.152C92.9532 34.488 93.0305 34.896 93.0305 35.376C93.0305 35.8987 92.9399 36.3893 92.7585 36.848C92.5825 37.3013 92.3212 37.6987 91.9745 38.04C91.6332 38.376 91.2145 38.6427 90.7185 38.84C90.2225 39.032 89.6545 39.128 89.0145 39.128C88.6465 39.128 88.2839 39.0907 87.9265 39.016C87.5692 38.9467 87.2252 38.8453 86.8945 38.712C86.5692 38.5787 86.2625 38.4187 85.9745 38.232C85.6865 38.0453 85.4305 37.8373 85.2065 37.608L85.8385 36.576C85.8919 36.5013 85.9612 36.44 86.0465 36.392C86.1319 36.3387 86.2225 36.312 86.3185 36.312C86.4519 36.312 86.5959 36.368 86.7505 36.48C86.9052 36.5867 87.0892 36.7067 87.3025 36.84C87.5159 36.9733 87.7639 37.096 88.0465 37.208C88.3345 37.3147 88.6785 37.368 89.0785 37.368C89.6919 37.368 90.1665 37.224 90.5025 36.936C90.8385 36.6427 91.0065 36.224 91.0065 35.68C91.0065 35.376 90.9292 35.128 90.7745 34.936C90.6252 34.744 90.4252 34.584 90.1745 34.456C89.9239 34.3227 89.6385 34.2107 89.3185 34.12C88.9985 34.0293 88.6732 33.9307 88.3425 33.824C88.0119 33.7173 87.6865 33.5893 87.3665 33.44C87.0465 33.2907 86.7612 33.096 86.5105 32.856C86.2599 32.616 86.0572 32.3173 85.9025 31.96C85.7532 31.5973 85.6785 31.152 85.6785 30.624C85.6785 30.2027 85.7612 29.792 85.9265 29.392C86.0972 28.992 86.3425 28.6373 86.6625 28.328C86.9825 28.0187 87.3772 27.7707 87.8465 27.584C88.3159 27.3973 88.8545 27.304 89.4625 27.304C90.1452 27.304 90.7745 27.4107 91.3505 27.624C91.9265 27.8373 92.4172 28.136 92.8225 28.52L92.2865 29.536ZM96.6391 39.128C95.9244 39.128 95.3751 38.928 94.9911 38.528C94.6124 38.1227 94.4231 37.5653 94.4231 36.856V32.272H93.5831C93.4764 32.272 93.3857 32.2373 93.3111 32.168C93.2364 32.0987 93.1991 31.9947 93.1991 31.856V31.072L94.5191 30.856L94.9351 28.616C94.9617 28.5093 95.0124 28.4267 95.0871 28.368C95.1617 28.3093 95.2577 28.28 95.3751 28.28H96.3991V30.864H98.5911V32.272H96.3991V36.72C96.3991 36.976 96.4604 37.176 96.5831 37.32C96.7111 37.464 96.8844 37.536 97.1031 37.536C97.2257 37.536 97.3271 37.5227 97.4071 37.496C97.4924 37.464 97.5644 37.432 97.6231 37.4C97.6871 37.368 97.7431 37.3387 97.7911 37.312C97.8391 37.28 97.8871 37.264 97.9351 37.264C97.9937 37.264 98.0417 37.28 98.0791 37.312C98.1164 37.3387 98.1564 37.3813 98.1991 37.44L98.7911 38.4C98.5031 38.64 98.1724 38.8213 97.7991 38.944C97.4257 39.0667 97.0391 39.128 96.6391 39.128ZM103.092 30.664C103.7 30.664 104.252 30.7627 104.748 30.96C105.25 31.1573 105.676 31.4373 106.028 31.8C106.386 32.1627 106.66 32.6053 106.852 33.128C107.044 33.6507 107.14 34.2347 107.14 34.88C107.14 35.5307 107.044 36.1173 106.852 36.64C106.66 37.1627 106.386 37.608 106.028 37.976C105.676 38.344 105.25 38.6267 104.748 38.824C104.252 39.0213 103.7 39.12 103.092 39.12C102.479 39.12 101.922 39.0213 101.42 38.824C100.919 38.6267 100.49 38.344 100.132 37.976C99.7804 37.608 99.5057 37.1627 99.3084 36.64C99.1164 36.1173 99.0204 35.5307 99.0204 34.88C99.0204 34.2347 99.1164 33.6507 99.3084 33.128C99.5057 32.6053 99.7804 32.1627 100.132 31.8C100.49 31.4373 100.919 31.1573 101.42 30.96C101.922 30.7627 102.479 30.664 103.092 30.664ZM103.092 37.6C103.775 37.6 104.279 37.3707 104.604 36.912C104.935 36.4533 105.1 35.7813 105.1 34.896C105.1 34.0107 104.935 33.336 104.604 32.872C104.279 32.408 103.775 32.176 103.092 32.176C102.399 32.176 101.884 32.4107 101.548 32.88C101.218 33.344 101.052 34.016 101.052 34.896C101.052 35.776 101.218 36.448 101.548 36.912C101.884 37.3707 102.399 37.6 103.092 37.6ZM110.179 32.216C110.435 31.7253 110.739 31.3413 111.091 31.064C111.443 30.7813 111.859 30.64 112.339 30.64C112.717 30.64 113.021 30.7227 113.251 30.888L113.123 32.368C113.096 32.464 113.056 32.5333 113.003 32.576C112.955 32.6133 112.888 32.632 112.803 32.632C112.723 32.632 112.603 32.6187 112.443 32.592C112.288 32.5653 112.136 32.552 111.987 32.552C111.768 32.552 111.573 32.584 111.403 32.648C111.232 32.712 111.077 32.8053 110.939 32.928C110.805 33.0453 110.685 33.1893 110.579 33.36C110.477 33.5307 110.381 33.7253 110.291 33.944V39H108.315V30.792H109.475C109.677 30.792 109.819 30.8293 109.899 30.904C109.979 30.9733 110.032 31.1013 110.059 31.288L110.179 32.216ZM119.004 33.952C119.004 33.696 118.966 33.456 118.892 33.232C118.822 33.0027 118.716 32.8027 118.572 32.632C118.428 32.4613 118.244 32.328 118.02 32.232C117.801 32.1307 117.545 32.08 117.252 32.08C116.681 32.08 116.23 32.2427 115.9 32.568C115.574 32.8933 115.366 33.3547 115.276 33.952H119.004ZM115.236 35.144C115.268 35.5653 115.342 35.9307 115.46 36.24C115.577 36.544 115.732 36.7973 115.924 37C116.116 37.1973 116.342 37.3467 116.604 37.448C116.87 37.544 117.164 37.592 117.484 37.592C117.804 37.592 118.078 37.5547 118.308 37.48C118.542 37.4053 118.745 37.3227 118.916 37.232C119.092 37.1413 119.244 37.0587 119.372 36.984C119.505 36.9093 119.633 36.872 119.756 36.872C119.921 36.872 120.044 36.9333 120.124 37.056L120.692 37.776C120.473 38.032 120.228 38.248 119.956 38.424C119.684 38.5947 119.398 38.7333 119.1 38.84C118.806 38.9413 118.505 39.0133 118.196 39.056C117.892 39.0987 117.596 39.12 117.308 39.12C116.737 39.12 116.206 39.0267 115.716 38.84C115.225 38.648 114.798 38.368 114.436 38C114.073 37.6267 113.788 37.168 113.58 36.624C113.372 36.0747 113.268 35.44 113.268 34.72C113.268 34.16 113.358 33.6347 113.54 33.144C113.721 32.648 113.98 32.2187 114.316 31.856C114.657 31.488 115.07 31.1973 115.556 30.984C116.046 30.7707 116.598 30.664 117.212 30.664C117.729 30.664 118.206 30.7467 118.644 30.912C119.081 31.0773 119.457 31.32 119.772 31.64C120.086 31.9547 120.332 32.344 120.508 32.808C120.689 33.2667 120.78 33.792 120.78 34.384C120.78 34.6827 120.748 34.8853 120.684 34.992C120.62 35.0933 120.497 35.144 120.316 35.144H115.236Z" fill="white"/>
</svg>
