<svg width="14" height="10" viewBox="0 0 14 10" fill="none" xmlns="http://www.w3.org/2000/svg">
<path fill-rule="evenodd" clip-rule="evenodd" d="M-9.53674e-07 5.00002C-9.53674e-07 5.13263 0.0526772 5.25981 0.146445 5.35357C0.240213 5.44734 0.367391 5.50002 0.499999 5.50002L12.293 5.50002L9.146 8.64602C9.05211 8.73991 8.99937 8.86725 8.99937 9.00002C8.99937 9.1328 9.05211 9.26013 9.146 9.35402C9.23989 9.44791 9.36722 9.50065 9.5 9.50065C9.63277 9.50065 9.76011 9.44791 9.854 9.35402L13.854 5.35402C13.9006 5.30758 13.9375 5.2524 13.9627 5.19165C13.9879 5.13091 14.0009 5.06579 14.0009 5.00002C14.0009 4.93425 13.9879 4.86913 13.9627 4.80839C13.9375 4.74764 13.9006 4.69247 13.854 4.64602L9.854 0.646021C9.80751 0.599533 9.75232 0.562657 9.69158 0.537498C9.63084 0.512339 9.56574 0.49939 9.5 0.49939C9.36722 0.49939 9.23989 0.552134 9.146 0.646021C9.05211 0.739908 8.99937 0.867245 8.99937 1.00002C8.99937 1.1328 9.05211 1.26013 9.146 1.35402L12.293 4.50002L0.499999 4.50002C0.367391 4.50002 0.240213 4.5527 0.146445 4.64647C0.0526772 4.74024 -9.53674e-07 4.86741 -9.53674e-07 5.00002Z" fill="black"/>
</svg>
