<svg width="157" height="64" viewBox="0 0 157 64" fill="none" xmlns="http://www.w3.org/2000/svg">
<rect x="7" y="9" width="143" height="42" rx="6" fill="#096F6D"/>
<path d="M48.7 18.136C48.7 18.5653 48.632 18.956 48.496 19.308C48.36 19.66 48.168 19.9613 47.92 20.212C47.672 20.4627 47.3733 20.6573 47.024 20.796C46.6773 20.932 46.2933 21 45.872 21H43.732V15.268H45.872C46.2933 15.268 46.6773 15.3373 47.024 15.476C47.3733 15.612 47.672 15.8067 47.92 16.06C48.168 16.3107 48.36 16.612 48.496 16.964C48.632 17.316 48.7 17.7067 48.7 18.136ZM47.904 18.136C47.904 17.784 47.856 17.4693 47.76 17.192C47.664 16.9147 47.528 16.68 47.352 16.488C47.176 16.296 46.9627 16.1493 46.712 16.048C46.4613 15.9467 46.1813 15.896 45.872 15.896H44.508V20.372H45.872C46.1813 20.372 46.4613 20.3213 46.712 20.22C46.9627 20.1187 47.176 19.9733 47.352 19.784C47.528 19.592 47.664 19.3573 47.76 19.08C47.856 18.8027 47.904 18.488 47.904 18.136ZM49.9905 16.948V21H49.2785V16.948H49.9905ZM50.1425 15.676C50.1425 15.7453 50.1278 15.8107 50.0985 15.872C50.0718 15.9307 50.0345 15.984 49.9865 16.032C49.9411 16.0773 49.8865 16.1133 49.8225 16.14C49.7611 16.1667 49.6958 16.18 49.6265 16.18C49.5571 16.18 49.4918 16.1667 49.4305 16.14C49.3718 16.1133 49.3198 16.0773 49.2745 16.032C49.2291 15.984 49.1931 15.9307 49.1665 15.872C49.1398 15.8107 49.1265 15.7453 49.1265 15.676C49.1265 15.6067 49.1398 15.5413 49.1665 15.48C49.1931 15.416 49.2291 15.3613 49.2745 15.316C49.3198 15.268 49.3718 15.2307 49.4305 15.204C49.4918 15.1773 49.5571 15.164 49.6265 15.164C49.6958 15.164 49.7611 15.1773 49.8225 15.204C49.8865 15.2307 49.9411 15.268 49.9865 15.316C50.0345 15.3613 50.0718 15.416 50.0985 15.48C50.1278 15.5413 50.1425 15.6067 50.1425 15.676ZM53.187 17.616C53.155 17.6747 53.1057 17.704 53.039 17.704C52.999 17.704 52.9537 17.6893 52.903 17.66C52.8524 17.6307 52.7897 17.5987 52.715 17.564C52.643 17.5267 52.5564 17.4933 52.455 17.464C52.3537 17.432 52.2337 17.416 52.095 17.416C51.975 17.416 51.867 17.432 51.771 17.464C51.675 17.4933 51.5924 17.5347 51.523 17.588C51.4564 17.6413 51.4044 17.704 51.367 17.776C51.3324 17.8453 51.315 17.9213 51.315 18.004C51.315 18.108 51.3444 18.1947 51.403 18.264C51.4644 18.3333 51.5444 18.3933 51.643 18.444C51.7417 18.4947 51.8537 18.54 51.979 18.58C52.1044 18.6173 52.2324 18.6587 52.363 18.704C52.4964 18.7467 52.6257 18.7947 52.751 18.848C52.8764 18.9013 52.9884 18.968 53.087 19.048C53.1857 19.128 53.2644 19.2267 53.323 19.344C53.3844 19.4587 53.415 19.5973 53.415 19.76C53.415 19.9467 53.3817 20.12 53.315 20.28C53.2484 20.4373 53.1497 20.5747 53.019 20.692C52.8884 20.8067 52.7284 20.8973 52.539 20.964C52.3497 21.0307 52.131 21.064 51.883 21.064C51.6004 21.064 51.3444 21.0187 51.115 20.928C50.8857 20.8347 50.691 20.716 50.531 20.572L50.699 20.3C50.7204 20.2653 50.7457 20.2387 50.775 20.22C50.8044 20.2013 50.8417 20.192 50.887 20.192C50.935 20.192 50.9857 20.2107 51.039 20.248C51.0924 20.2853 51.1564 20.3267 51.231 20.372C51.3084 20.4173 51.4017 20.4587 51.511 20.496C51.6204 20.5333 51.7564 20.552 51.919 20.552C52.0577 20.552 52.179 20.5347 52.283 20.5C52.387 20.4627 52.4737 20.4133 52.543 20.352C52.6124 20.2907 52.663 20.22 52.695 20.14C52.7297 20.06 52.747 19.9747 52.747 19.884C52.747 19.772 52.7164 19.68 52.655 19.608C52.5964 19.5333 52.5177 19.4707 52.419 19.42C52.3204 19.3667 52.207 19.3213 52.079 19.284C51.9537 19.244 51.8244 19.2027 51.691 19.16C51.5604 19.1173 51.431 19.0693 51.303 19.016C51.1777 18.96 51.0657 18.8907 50.967 18.808C50.8684 18.7253 50.7884 18.624 50.727 18.504C50.6684 18.3813 50.639 18.2333 50.639 18.06C50.639 17.9053 50.671 17.7573 50.735 17.616C50.799 17.472 50.8924 17.3467 51.015 17.24C51.1377 17.1307 51.2884 17.044 51.467 16.98C51.6457 16.916 51.8497 16.884 52.079 16.884C52.3457 16.884 52.5844 16.9267 52.795 17.012C53.0084 17.0947 53.1924 17.2093 53.347 17.356L53.187 17.616ZM54.6706 20.024C54.8013 20.2 54.944 20.324 55.0986 20.396C55.2533 20.468 55.4266 20.504 55.6186 20.504C55.9973 20.504 56.288 20.3693 56.4906 20.1C56.6933 19.8307 56.7946 19.4467 56.7946 18.948C56.7946 18.684 56.7706 18.4573 56.7226 18.268C56.6773 18.0787 56.6106 17.924 56.5226 17.804C56.4346 17.6813 56.3266 17.592 56.1986 17.536C56.0706 17.48 55.9253 17.452 55.7626 17.452C55.5306 17.452 55.3266 17.5053 55.1506 17.612C54.9773 17.7187 54.8173 17.8693 54.6706 18.064V20.024ZM54.6346 17.576C54.8053 17.3653 55.0026 17.196 55.2266 17.068C55.4506 16.94 55.7066 16.876 55.9946 16.876C56.2293 16.876 56.4413 16.9213 56.6306 17.012C56.82 17.1 56.9813 17.232 57.1146 17.408C57.248 17.5813 57.3506 17.7973 57.4226 18.056C57.4946 18.3147 57.5306 18.612 57.5306 18.948C57.5306 19.2467 57.4906 19.5253 57.4106 19.784C57.3306 20.04 57.2146 20.2627 57.0626 20.452C56.9133 20.6387 56.7293 20.7867 56.5106 20.896C56.2946 21.0027 56.0506 21.056 55.7786 21.056C55.5306 21.056 55.3173 21.0147 55.1386 20.932C54.9626 20.8467 54.8066 20.7293 54.6706 20.58V22.372H53.9546V16.948H54.3826C54.484 16.948 54.5466 16.9973 54.5706 17.096L54.6346 17.576ZM59.8137 16.884C60.1097 16.884 60.3763 16.9333 60.6137 17.032C60.851 17.1307 61.0537 17.2707 61.2217 17.452C61.3897 17.6333 61.5177 17.8533 61.6057 18.112C61.6963 18.368 61.7417 18.6547 61.7417 18.972C61.7417 19.292 61.6963 19.58 61.6057 19.836C61.5177 20.092 61.3897 20.3107 61.2217 20.492C61.0537 20.6733 60.851 20.8133 60.6137 20.912C60.3763 21.008 60.1097 21.056 59.8137 21.056C59.515 21.056 59.2457 21.008 59.0057 20.912C58.7683 20.8133 58.5657 20.6733 58.3977 20.492C58.2297 20.3107 58.1003 20.092 58.0097 19.836C57.9217 19.58 57.8777 19.292 57.8777 18.972C57.8777 18.6547 57.9217 18.368 58.0097 18.112C58.1003 17.8533 58.2297 17.6333 58.3977 17.452C58.5657 17.2707 58.7683 17.1307 59.0057 17.032C59.2457 16.9333 59.515 16.884 59.8137 16.884ZM59.8137 20.5C60.2137 20.5 60.5123 20.3667 60.7097 20.1C60.907 19.8307 61.0057 19.456 61.0057 18.976C61.0057 18.4933 60.907 18.1173 60.7097 17.848C60.5123 17.5787 60.2137 17.444 59.8137 17.444C59.611 17.444 59.4337 17.4787 59.2817 17.548C59.1323 17.6173 59.007 17.7173 58.9057 17.848C58.807 17.9787 58.7323 18.14 58.6817 18.332C58.6337 18.5213 58.6097 18.736 58.6097 18.976C58.6097 19.456 58.7083 19.8307 58.9057 20.1C59.1057 20.3667 59.4083 20.5 59.8137 20.5ZM62.9834 17.536C63.0714 17.4373 63.1647 17.348 63.2634 17.268C63.3621 17.188 63.4661 17.12 63.5754 17.064C63.6874 17.0053 63.8047 16.9613 63.9274 16.932C64.0527 16.9 64.1874 16.884 64.3314 16.884C64.5527 16.884 64.7474 16.9213 64.9154 16.996C65.0861 17.068 65.2274 17.172 65.3394 17.308C65.4541 17.4413 65.5407 17.6027 65.5994 17.792C65.6581 17.9813 65.6874 18.1907 65.6874 18.42V21H64.9714V18.42C64.9714 18.1133 64.9007 17.876 64.7594 17.708C64.6207 17.5373 64.4087 17.452 64.1234 17.452C63.9127 17.452 63.7154 17.5027 63.5314 17.604C63.3501 17.7053 63.1821 17.8427 63.0274 18.016V21H62.3114V16.948H62.7394C62.8407 16.948 62.9034 16.9973 62.9274 17.096L62.9834 17.536ZM67.191 16.948V21H66.479V16.948H67.191ZM67.343 15.676C67.343 15.7453 67.3283 15.8107 67.299 15.872C67.2723 15.9307 67.235 15.984 67.187 16.032C67.1417 16.0773 67.087 16.1133 67.023 16.14C66.9617 16.1667 66.8963 16.18 66.827 16.18C66.7577 16.18 66.6923 16.1667 66.631 16.14C66.5723 16.1133 66.5203 16.0773 66.475 16.032C66.4297 15.984 66.3937 15.9307 66.367 15.872C66.3403 15.8107 66.327 15.7453 66.327 15.676C66.327 15.6067 66.3403 15.5413 66.367 15.48C66.3937 15.416 66.4297 15.3613 66.475 15.316C66.5203 15.268 66.5723 15.2307 66.631 15.204C66.6923 15.1773 66.7577 15.164 66.827 15.164C66.8963 15.164 66.9617 15.1773 67.023 15.204C67.087 15.2307 67.1417 15.268 67.187 15.316C67.235 15.3613 67.2723 15.416 67.299 15.48C67.3283 15.5413 67.343 15.6067 67.343 15.676ZM68.7435 20.024C68.8742 20.2 69.0169 20.324 69.1715 20.396C69.3289 20.468 69.5009 20.504 69.6875 20.504C70.0689 20.504 70.3609 20.3693 70.5635 20.1C70.7662 19.8307 70.8675 19.4293 70.8675 18.896C70.8675 18.4 70.7769 18.036 70.5955 17.804C70.4169 17.5693 70.1609 17.452 69.8275 17.452C69.5955 17.452 69.3929 17.5053 69.2195 17.612C69.0489 17.7187 68.8902 17.8693 68.7435 18.064V20.024ZM68.7435 17.532C68.9142 17.3347 69.1062 17.1773 69.3195 17.06C69.5355 16.9427 69.7835 16.884 70.0635 16.884C70.3009 16.884 70.5142 16.9293 70.7035 17.02C70.8955 17.1107 71.0582 17.2427 71.1915 17.416C71.3249 17.5867 71.4262 17.7947 71.4955 18.04C71.5675 18.2853 71.6035 18.5613 71.6035 18.868C71.6035 19.196 71.5635 19.4947 71.4835 19.764C71.4035 20.0333 71.2875 20.264 71.1355 20.456C70.9862 20.6453 70.8035 20.7933 70.5875 20.9C70.3715 21.004 70.1289 21.056 69.8595 21.056C69.5929 21.056 69.3675 21.0067 69.1835 20.908C69.0022 20.8067 68.8435 20.664 68.7075 20.48L68.6715 20.848C68.6502 20.9493 68.5889 21 68.4875 21H68.0275V15.108H68.7435V17.532ZM72.9068 15.108V21H72.1948V15.108H72.9068ZM76.4401 18.532C76.4401 18.3667 76.4161 18.216 76.3681 18.08C76.3227 17.9413 76.2547 17.8227 76.1641 17.724C76.0761 17.6227 75.9681 17.5453 75.8401 17.492C75.7121 17.436 75.5667 17.408 75.4041 17.408C75.0627 17.408 74.7921 17.508 74.5921 17.708C74.3947 17.9053 74.2721 18.18 74.2241 18.532H76.4401ZM77.0161 20.432C76.9281 20.5387 76.8227 20.632 76.7001 20.712C76.5774 20.7893 76.4454 20.8533 76.3041 20.904C76.1654 20.9547 76.0214 20.992 75.8721 21.016C75.7227 21.0427 75.5747 21.056 75.4281 21.056C75.1481 21.056 74.8894 21.0093 74.6521 20.916C74.4174 20.82 74.2134 20.6813 74.0401 20.5C73.8694 20.316 73.7361 20.0893 73.6401 19.82C73.5441 19.5507 73.4961 19.2413 73.4961 18.892C73.4961 18.6093 73.5387 18.3453 73.6241 18.1C73.7121 17.8547 73.8374 17.6427 74.0001 17.464C74.1627 17.2827 74.3614 17.1413 74.5961 17.04C74.8307 16.936 75.0947 16.884 75.3881 16.884C75.6307 16.884 75.8547 16.9253 76.0601 17.008C76.2681 17.088 76.4467 17.2053 76.5961 17.36C76.7481 17.512 76.8667 17.7013 76.9521 17.928C77.0374 18.152 77.0801 18.408 77.0801 18.696C77.0801 18.808 77.0681 18.8827 77.0441 18.92C77.0201 18.9573 76.9747 18.976 76.9081 18.976H74.2001C74.2081 19.232 74.2427 19.4547 74.3041 19.644C74.3681 19.8333 74.4561 19.992 74.5681 20.12C74.6801 20.2453 74.8134 20.34 74.9681 20.404C75.1227 20.4653 75.2961 20.496 75.4881 20.496C75.6667 20.496 75.8201 20.476 75.9481 20.436C76.0787 20.3933 76.1907 20.348 76.2841 20.3C76.3774 20.252 76.4547 20.208 76.5161 20.168C76.5801 20.1253 76.6347 20.104 76.6801 20.104C76.7387 20.104 76.7841 20.1267 76.8161 20.172L77.0161 20.432ZM82.0468 18.532C82.0468 18.3667 82.0228 18.216 81.9748 18.08C81.9295 17.9413 81.8615 17.8227 81.7708 17.724C81.6828 17.6227 81.5748 17.5453 81.4468 17.492C81.3188 17.436 81.1735 17.408 81.0108 17.408C80.6695 17.408 80.3988 17.508 80.1988 17.708C80.0015 17.9053 79.8788 18.18 79.8308 18.532H82.0468ZM82.6228 20.432C82.5348 20.5387 82.4295 20.632 82.3068 20.712C82.1842 20.7893 82.0522 20.8533 81.9108 20.904C81.7722 20.9547 81.6282 20.992 81.4788 21.016C81.3295 21.0427 81.1815 21.056 81.0348 21.056C80.7548 21.056 80.4962 21.0093 80.2588 20.916C80.0242 20.82 79.8202 20.6813 79.6468 20.5C79.4762 20.316 79.3428 20.0893 79.2468 19.82C79.1508 19.5507 79.1028 19.2413 79.1028 18.892C79.1028 18.6093 79.1455 18.3453 79.2308 18.1C79.3188 17.8547 79.4442 17.6427 79.6068 17.464C79.7695 17.2827 79.9682 17.1413 80.2028 17.04C80.4375 16.936 80.7015 16.884 80.9948 16.884C81.2375 16.884 81.4615 16.9253 81.6668 17.008C81.8748 17.088 82.0535 17.2053 82.2028 17.36C82.3548 17.512 82.4735 17.7013 82.5588 17.928C82.6442 18.152 82.6868 18.408 82.6868 18.696C82.6868 18.808 82.6748 18.8827 82.6508 18.92C82.6268 18.9573 82.5815 18.976 82.5148 18.976H79.8068C79.8148 19.232 79.8495 19.4547 79.9108 19.644C79.9748 19.8333 80.0628 19.992 80.1748 20.12C80.2868 20.2453 80.4202 20.34 80.5748 20.404C80.7295 20.4653 80.9028 20.496 81.0948 20.496C81.2735 20.496 81.4268 20.476 81.5548 20.436C81.6855 20.3933 81.7975 20.348 81.8908 20.3C81.9842 20.252 82.0615 20.208 82.1228 20.168C82.1868 20.1253 82.2415 20.104 82.2868 20.104C82.3455 20.104 82.3908 20.1267 82.4228 20.172L82.6228 20.432ZM83.9001 17.536C83.9881 17.4373 84.0814 17.348 84.1801 17.268C84.2787 17.188 84.3827 17.12 84.4921 17.064C84.6041 17.0053 84.7214 16.9613 84.8441 16.932C84.9694 16.9 85.1041 16.884 85.2481 16.884C85.4694 16.884 85.6641 16.9213 85.8321 16.996C86.0027 17.068 86.1441 17.172 86.2561 17.308C86.3707 17.4413 86.4574 17.6027 86.5161 17.792C86.5747 17.9813 86.6041 18.1907 86.6041 18.42V21H85.8881V18.42C85.8881 18.1133 85.8174 17.876 85.6761 17.708C85.5374 17.5373 85.3254 17.452 85.0401 17.452C84.8294 17.452 84.6321 17.5027 84.4481 17.604C84.2667 17.7053 84.0987 17.8427 83.9441 18.016V21H83.2281V16.948H83.6561C83.7574 16.948 83.8201 16.9973 83.8441 17.096L83.9001 17.536Z" fill="white"/>
<g clip-path="url(#clip0_0_48)">
<path d="M32.6215 35.9668C35.6508 34.2761 37.9475 32.988 38.1455 32.888C38.7785 32.5456 39.4326 31.6397 38.1455 30.9362C37.7299 30.715 35.4923 29.4668 32.6215 27.8574L28.642 31.9421L32.6213 35.9668H32.6215Z" fill="white"/>
<path d="M28.6419 31.942L15.9702 44.922C16.2674 44.9621 16.6032 44.8819 16.9993 44.6607C17.8305 44.1984 26.6415 39.3078 32.6217 35.9676L28.6419 31.942V31.942Z" fill="white"/>
<path d="M28.642 31.9421L32.6213 27.8772C32.6213 27.8772 17.8906 19.7069 16.9991 19.2247C16.6637 19.022 16.2874 18.9621 15.9507 19.022L28.642 31.9418V31.9421Z" fill="white"/>
<path d="M28.6419 31.942L15.9504 19.0222C15.4353 19.1432 15 19.6057 15 20.5512V43.3924C15 44.2583 15.3369 44.8819 15.9699 44.9418L28.6417 31.9418L28.6419 31.942Z" fill="white"/>
<path d="M69.3146 30.7082C67.0378 30.7082 65.1566 32.4989 65.1566 34.9541C65.1566 37.3893 67.0181 39.2001 69.3148 39.2001C71.6113 39.2001 73.4725 37.4094 73.4725 34.9541C73.4725 32.4989 71.6113 30.7082 69.3146 30.7082ZM69.3146 37.5105C68.0669 37.5105 66.9786 36.4436 66.9786 34.9352C66.9786 33.4058 68.0678 32.3599 69.3146 32.3599C70.5614 32.3599 71.6506 33.4058 71.6506 34.9352C71.6506 36.4436 70.5614 37.5105 69.3146 37.5105ZM60.2661 30.7082C57.9694 30.7082 56.108 32.4989 56.108 34.9541C56.108 37.3893 57.9694 39.2001 60.2661 39.2001C62.5627 39.2001 64.4241 37.4094 64.4241 34.9541C64.4241 32.4989 62.5627 30.7082 60.2659 30.7082H60.2661ZM60.2661 37.5105C59.0183 37.5105 57.9301 36.4436 57.9301 34.9352C57.9301 33.4058 59.0193 32.3599 60.2661 32.3599C61.5138 32.3599 62.6021 33.4058 62.6021 34.9352C62.6021 36.4436 61.5324 37.5105 60.2661 37.5105ZM49.5147 32.0164V33.8071H53.7119C53.5927 34.8131 53.2571 35.5576 52.7617 36.0611C52.1482 36.6847 51.1977 37.3693 49.5147 37.3693C46.9206 37.3693 44.9215 35.2364 44.9215 32.6C44.9215 29.9637 46.9216 27.7905 49.5147 27.7905C50.92 27.7905 51.9305 28.3541 52.6828 29.0788L53.9296 27.8105C52.8799 26.7846 51.4746 26 49.5147 26C45.9701 26 43 28.9576 43 32.5599C43 36.1625 45.9701 39.1201 49.5147 39.1201C51.4351 39.1201 52.8612 38.4765 54.0094 37.2684C55.1775 36.0812 55.5339 34.4106 55.5339 33.0625C55.5339 32.6401 55.4947 32.2576 55.4346 31.9355L49.5147 32.0164V32.0164ZM93.51 33.4047C93.1731 32.4588 92.1045 30.7082 89.9654 30.7082C87.8264 30.7082 86.0645 32.4189 86.0645 34.9541C86.0645 37.3283 87.8264 39.2001 90.1635 39.2001C92.0642 39.2001 93.1534 38.0129 93.6084 37.3283L92.2031 36.3625C91.7275 37.0672 91.0942 37.5295 90.1635 37.5295C89.2328 37.5295 88.5798 37.1071 88.1633 36.2414L93.6873 33.8873L93.51 33.4047V33.4047ZM87.8865 34.834C87.8473 33.2035 89.1344 32.3588 90.0443 32.3588C90.777 32.3588 91.3711 32.721 91.5885 33.2646L87.8865 34.834V34.834ZM83.3919 38.9187H85.2138V26.4823H83.3919V38.9187V38.9187ZM80.4226 31.6541H80.3634C79.9478 31.1506 79.1758 30.7082 78.1851 30.7082C76.106 30.7082 74.225 32.58 74.225 34.9541C74.225 37.3283 76.1257 39.1802 78.1851 39.1802C79.1747 39.1802 79.947 38.7376 80.3634 38.2141H80.4226V38.8178C80.4226 40.4483 79.5706 41.3129 78.2048 41.3129C77.0959 41.3129 76.4025 40.4882 76.1257 39.8036L74.5422 40.4882C74.9971 41.6152 76.2055 43.0036 78.2048 43.0036C80.3428 43.0036 82.1451 41.7155 82.1451 38.5966V30.9695H80.4226V31.6541V31.6541ZM78.3435 37.5105C77.0959 37.5105 76.047 36.4436 76.047 34.9552C76.047 33.4668 77.0967 32.3797 78.3435 32.3797C79.5717 32.3797 80.5614 33.4668 80.5614 34.9552C80.5605 36.4236 79.5706 37.5105 78.3435 37.5105ZM102.004 26.4825H97.6482V38.9187H99.4702V34.2094H102.004C104.024 34.2094 106.004 32.7199 106.004 30.346C106.004 27.9718 104.024 26.4823 102.004 26.4823V26.4825ZM102.063 32.4799H99.4888V28.2129H102.063C103.409 28.2129 104.201 29.3599 104.201 30.3457C104.182 31.3117 103.41 32.4799 102.063 32.4799ZM113.271 30.6882C111.964 30.6882 110.597 31.2718 110.043 32.6L111.647 33.2846C112.004 32.6 112.637 32.3788 113.311 32.3788C114.261 32.3788 115.212 32.9623 115.231 33.9882V34.1094C114.894 33.9082 114.202 33.6259 113.331 33.6259C111.588 33.6259 109.825 34.6119 109.825 36.4236C109.825 38.094 111.252 39.1602 112.835 39.1602C114.063 39.1602 114.736 38.5966 115.152 37.9329H115.211V38.8989H116.972V34.1292C116.953 31.9362 115.349 30.6879 113.271 30.6879V30.6882ZM113.053 37.4905C112.459 37.4905 111.627 37.1882 111.627 36.4445C111.627 35.4785 112.656 35.1163 113.547 35.1163C114.339 35.1163 114.715 35.2974 115.211 35.5387C115.072 36.6858 114.102 37.4905 113.053 37.4905V37.4905ZM123.329 30.9706L121.25 36.3434H121.19L119.033 30.9704H117.073L120.32 38.4963L118.478 42.7024H120.379L125.348 30.9704H123.328L123.329 30.9706ZM107.014 38.9187H108.836V26.4823H107.014V38.9187Z" fill="white"/>
</g>
<defs>
<clipPath id="clip0_0_48">
<rect width="111" height="26" fill="white" transform="translate(15 19)"/>
</clipPath>
</defs>
</svg>
